<svg width="682" height="328" viewBox="0 0 682 328" fill="none" xmlns="http://www.w3.org/2000/svg">
<path d="M650.34 45.5898V60.3999V75.1998V89.9998V104.79V119.59V223.17V237.96H665.14V223.17V119.59V104.79V89.9998V75.1998V60.3999V45.5898H650.34Z" fill="black"/>
<path d="M650.339 237.961H635.539V252.761H650.339V237.961Z" fill="black"/>
<path d="M650.339 30.8008H635.539V45.5908H650.339V30.8008Z" fill="black"/>
<path d="M238.989 252.762H224.179H209.379H194.589H179.789H164.989H150.189H135.399H120.589H105.789V267.562H120.589H135.399H150.189H164.989H179.789H194.589H209.379H224.179H238.989H635.539V252.762H667.519H238.989Z" fill="black"/>
<path d="M90.9908 282.359H76.2008V297.159H61.4008H51.4908H46.6008V282.359H31.8008V297.159V311.959H46.6008H51.4908H61.4008H76.2008V297.159H91.0008V282.359H105.791V267.559H90.9908V282.359Z" fill="black"/>
<path d="M61.3996 267.562V252.762H46.5996V267.562V282.362H61.3996V267.562Z" fill="black"/>
<path d="M238.99 16H224.18H209.38H194.59H179.79H164.99H150.19H135.4H120.59H105.79H90.9896H76.1996H61.3996H46.5996V30.8H61.3996H76.1996H90.9896H105.79H120.59H135.4H150.19H164.99H179.79H194.59H209.38H224.18H238.99H635.54V16H238.99Z" fill="black"/>
<path d="M46.6008 237.961H31.8008V252.761H46.6008V237.961Z" fill="black"/>
<path d="M46.6008 30.8008H31.8008V45.5908H46.6008V30.8008Z" fill="black"/>
<path d="M17 60.3999V75.1998V89.9998V104.79V119.59V223.17V237.96H31.8V223.17V119.59V104.79V89.9998V75.1998V60.3999V45.5898H17V60.3999Z" fill="black"/>
<path d="M46.6008 30.8008V45.5908H31.8008V237.961H46.6008V252.761H61.4008V282.361H46.6008V297.161H76.2008V282.361H91.0008V267.561H105.791V252.761H635.541V237.961H650.341V45.5908H635.541V30.8008H46.6008Z" fill="white"/>
<path d="M105.14 93.882C106.03 93.882 106.71 94.012 107.19 94.272C107.38 98.232 107.47 101.812 107.47 104.992C107.47 111.842 107.15 117.862 106.53 123.042C106.2 125.892 105.08 128.152 103.17 129.822C101.26 131.492 98.75 132.322 95.64 132.322C92.31 132.322 89.47 131.502 87.11 129.882C84.75 128.262 83.51 125.862 83.36 122.722C83.28 121.352 83.25 119.222 83.25 116.332C83.25 114.632 83.29 112.002 83.36 108.442C83.43 104.812 83.47 102.092 83.47 100.282L83.41 93.732L83.36 93.672H83.41L86.08 93.612C87.15 93.612 88.06 93.692 88.8 93.832C88.61 97.502 88.52 101.312 88.52 105.272V108.382C88.52 112.452 88.65 115.742 88.91 118.242C89.17 120.742 89.77 122.782 90.71 124.352C91.65 125.922 93.09 126.712 95.01 126.712C95.97 126.712 96.86 126.522 97.68 126.132C98.49 125.742 99.12 125.162 99.57 124.382C100.42 122.422 100.99 119.992 101.29 117.102C101.59 114.212 101.73 110.752 101.73 106.712L101.67 98.272C101.67 96.422 101.69 95.052 101.73 94.162C103.4 93.982 104.52 93.882 105.12 93.882H105.14ZM97.75 89.772C97.97 89.402 98.98 88.352 100.78 86.602C102.57 84.862 103.62 83.922 103.92 83.772L101.09 80.832C100.61 81.242 99.9 81.912 98.95 82.862L96.59 85.222C94.52 87.372 93.05 88.832 92.2 89.612C92.76 89.802 93.85 89.892 95.48 89.892C96.52 89.892 97.27 89.852 97.76 89.782L97.75 89.772Z" fill="#0064C8"/>
<path d="M136.61 127.483C136.61 128.043 136.65 128.983 136.72 130.313V131.423H132C131.56 130.533 131.08 129.613 130.58 128.643C130.08 127.683 129.59 126.733 129.11 125.813C128.67 124.963 127.48 122.653 125.56 118.893C123.63 115.133 121.86 111.533 120.23 108.093C120.04 107.683 119.86 107.263 119.67 106.813C119.48 106.363 119.36 106.113 119.28 106.033C119.2 105.953 119.15 106.033 119.11 106.253V107.863C119.11 108.903 119.11 110.773 119.14 113.473C119.16 116.173 119.17 120.413 119.17 126.193V127.633C119.17 129.443 119.19 130.703 119.22 131.413C118.59 131.563 117.96 131.613 117.33 131.583C116.92 131.583 116.35 131.543 115.61 131.473C114.72 131.403 114.07 131.363 113.67 131.363V127.473C113.67 125.103 113.63 121.733 113.56 117.363L113.5 107.423C113.5 101.533 113.67 96.573 114 92.543C114.44 92.473 114.81 92.433 115.11 92.433L116.05 92.493C117.94 92.603 118.88 92.733 118.88 92.883C119.32 93.953 119.82 95.053 120.38 96.163C120.93 97.273 121.6 98.573 122.38 100.053C124.19 103.353 126.1 107.153 128.1 111.463C130.1 115.773 131.32 118.543 131.77 119.763C131.81 118.283 131.75 115.853 131.6 112.483L131.49 108.763C131.42 104.653 131.34 101.713 131.27 99.933L131.21 96.933V92.213C132.1 92.103 133.02 92.043 133.99 92.043C135.17 92.113 136.06 92.213 136.66 92.323V110.203C136.7 112.273 136.72 115.443 136.72 119.703L136.66 125.873C136.62 126.243 136.6 126.783 136.6 127.483H136.61Z" fill="#0064C8"/>
<path d="M166.599 126.54V126.65C166.669 128.61 166.579 130.15 166.319 131.26C164.539 131.22 161.819 131.24 158.159 131.32C155.269 131.39 153.089 131.43 151.609 131.43C148.429 131.43 145.739 131.34 143.559 131.15C143.559 126.97 143.509 122.82 143.389 118.71C143.309 113.23 143.279 109.16 143.279 106.49C143.279 101.16 143.389 96.7102 143.609 93.1602C150.459 92.8302 156.769 92.6602 162.549 92.6602C165.249 92.6602 166.599 92.7102 166.599 92.8302C166.639 93.0902 166.659 93.5002 166.659 94.0502C166.659 94.7902 166.639 95.3302 166.599 95.6602L166.539 97.3302V97.8802C163.869 98.0702 161.519 98.1602 159.489 98.1602H154.659C152.509 98.1602 150.679 98.2202 149.159 98.3302L148.939 98.3902C149.009 99.3202 148.959 101 148.769 103.44C148.699 105.29 148.659 106.46 148.659 106.94C148.659 108.09 148.729 108.94 148.879 109.49L148.939 109.54C150.719 109.58 152.609 109.6 154.609 109.6C156.309 109.6 157.699 109.64 158.779 109.71V109.77C158.849 110.33 158.889 111.1 158.889 112.1C158.889 112.43 158.889 112.81 158.859 113.24C158.839 113.67 158.859 114.12 158.889 114.6C158.039 114.67 157.349 114.73 156.839 114.77C156.319 114.81 155.729 114.83 155.059 114.83C153.949 114.83 152.909 114.85 151.949 114.89C150.279 114.97 149.359 115.06 149.169 115.17C149.019 116.02 148.949 117.23 148.949 118.78C148.949 119.82 148.969 120.61 149.009 121.17C149.009 121.65 149.009 122.4 149.039 123.42C149.059 124.44 149.039 125.37 149.009 126.22L149.069 126.28C151.739 126.24 155.139 126.32 159.289 126.5C161.659 126.58 163.359 126.61 164.399 126.61L166.619 126.55L166.599 126.54Z" fill="#0064C8"/>
<path d="M171.199 92.3209C173.379 92.3209 175.009 92.3009 176.089 92.2609L181.259 92.2109C186.669 92.2109 191.129 92.4109 194.639 92.8209C194.679 93.1509 194.699 93.7309 194.699 94.5409C194.699 95.8009 194.609 97.1309 194.419 98.5409C193.599 98.3909 192.459 98.3409 190.979 98.3709C189.789 98.4509 188.609 98.4809 187.429 98.4809H185.989C186.059 98.7009 186.059 98.9209 185.989 99.1509C185.949 99.3709 185.929 101.871 185.929 106.651C185.929 107.801 185.949 108.741 185.989 109.481C186.099 119.251 186.209 126.421 186.319 130.971V131.081C185.649 131.191 184.639 131.251 183.269 131.251C181.829 131.251 180.729 131.331 179.989 131.471C179.949 131.321 179.939 131.071 179.959 130.721C179.979 130.371 179.989 129.971 179.989 129.531V126.141C180.029 125.401 180.049 124.071 180.049 122.141C180.049 119.961 180.029 118.201 179.989 116.861C179.919 111.571 179.789 105.611 179.599 98.9809V98.7609C178.819 98.5409 176.769 98.3909 173.429 98.3209C172.239 98.3209 171.599 98.3009 171.489 98.2709C171.379 98.0509 171.299 97.3409 171.269 96.1609C171.229 94.9809 171.209 93.7009 171.209 92.3309L171.199 92.3209Z" fill="#0064C8"/>
<path d="M222.99 126.54V126.65C223.06 128.61 222.97 130.15 222.71 131.26C220.93 131.22 218.21 131.24 214.55 131.32C211.66 131.39 209.48 131.43 208 131.43C204.82 131.43 202.13 131.34 199.95 131.15C199.95 126.97 199.89 122.82 199.78 118.71C199.71 113.23 199.67 109.16 199.67 106.49C199.67 101.16 199.78 96.7102 200 93.1602C206.85 92.8302 213.16 92.6602 218.94 92.6602C221.64 92.6602 222.99 92.7102 222.99 92.8302C223.03 93.0902 223.04 93.5002 223.04 94.0502C223.04 94.7902 223.02 95.3302 222.99 95.6602L222.93 97.3302V97.8802C220.26 98.0702 217.91 98.1602 215.88 98.1602H211.05C208.9 98.1602 207.07 98.2202 205.55 98.3302L205.33 98.3902C205.4 99.3202 205.35 101 205.16 103.44C205.08 105.29 205.05 106.46 205.05 106.94C205.05 108.09 205.12 108.94 205.27 109.49L205.32 109.54C207.1 109.58 208.99 109.6 210.99 109.6C212.69 109.6 214.08 109.64 215.16 109.71V109.77C215.23 110.33 215.27 111.1 215.27 112.1C215.27 112.43 215.27 112.81 215.24 113.24C215.22 113.67 215.24 114.12 215.27 114.6C214.42 114.67 213.73 114.73 213.22 114.77C212.7 114.81 212.11 114.83 211.44 114.83C210.33 114.83 209.29 114.85 208.33 114.89C206.66 114.97 205.74 115.06 205.55 115.17C205.4 116.02 205.33 117.23 205.33 118.78C205.33 119.82 205.35 120.61 205.39 121.17C205.39 121.65 205.39 122.4 205.42 123.42C205.44 124.44 205.42 125.37 205.39 126.22L205.45 126.28C208.12 126.24 211.52 126.32 215.67 126.5C218.04 126.58 219.74 126.61 220.78 126.61L223 126.55L222.99 126.54Z" fill="#0064C8"/>
<path d="M256.359 92.2734C260.029 108.383 262.929 121.413 265.079 131.373V131.433C264.299 131.583 263.509 131.653 262.689 131.653C262.279 131.653 261.859 131.613 261.409 131.543C260.819 131.473 260.389 131.393 260.129 131.323H260.079C259.819 130.583 259.469 129.303 259.019 127.493C258.459 125.313 257.959 123.513 257.519 122.103C255.819 122.033 253.579 121.993 250.799 121.993H248.469C248.469 121.993 248.339 122.793 248.079 124.273C247.749 126.313 247.429 127.983 247.139 129.303C246.839 130.613 246.509 131.313 246.139 131.383C246.059 131.423 245.879 131.443 245.579 131.443C245.319 131.443 244.829 131.423 244.109 131.383C243.389 131.343 242.559 131.343 241.639 131.383H241.029V131.323C241.139 131.103 241.309 130.123 241.529 128.383C242.449 122.533 243.539 116.603 244.779 110.583C246.019 104.563 247.679 98.5634 249.749 92.5634C249.969 92.5234 250.269 92.5034 250.639 92.5034H251.859C253.299 92.5034 254.799 92.4334 256.359 92.2834V92.2734ZM251.309 117.653C253.679 117.653 255.789 117.633 257.639 117.593C255.569 105.933 254.329 99.8934 253.919 99.4834C253.589 99.3734 253.309 99.3134 253.089 99.3134C252.649 99.3134 252.269 99.6734 251.979 100.393C251.679 101.113 251.279 102.733 250.759 105.253C250.239 107.773 249.629 110.953 248.929 114.803L248.429 117.583H249.539C250.279 117.583 250.869 117.603 251.319 117.643L251.309 117.653Z" fill="#0064C8"/>
<path d="M306.96 126.042C306.96 126.372 306.93 126.832 306.88 127.402C306.83 127.972 306.81 128.462 306.85 128.872C306.85 129.762 306.8 130.382 306.71 130.732C306.62 131.082 306.5 131.292 306.35 131.342C306.2 131.402 305.92 131.422 305.52 131.422C305.19 131.382 304.83 131.372 304.44 131.392C304.05 131.412 303.65 131.422 303.25 131.422C299.92 131.532 296.68 131.592 293.53 131.592L285.92 131.532C285.44 131.492 284.66 131.482 283.59 131.482V130.482C283.89 123.522 284.03 117.372 284.03 112.042C284.03 108.672 283.97 104.932 283.86 100.822C283.86 99.4116 283.82 96.6016 283.75 92.3816C284.23 92.2016 285.01 92.1016 286.08 92.1016C287.67 92.1016 288.91 92.2916 289.8 92.6616C289.73 95.5516 289.69 97.7316 289.69 99.2116C289.69 100.992 289.73 103.692 289.8 107.322L289.86 115.372V118.872C289.86 121.722 289.82 124.022 289.75 125.762V125.822C290.19 125.782 290.95 125.752 292.03 125.712C293.1 125.672 294.16 125.652 295.2 125.652C296.35 125.652 298.33 125.732 301.14 125.872C303.66 126.022 305.27 126.092 305.97 126.092C306.49 126.092 306.82 126.072 306.97 126.032L306.96 126.042Z" fill="#0064C8"/>
<path d="M326.15 92.2734C329.82 108.383 332.72 121.413 334.87 131.373V131.433C334.09 131.583 333.3 131.653 332.48 131.653C332.07 131.653 331.65 131.613 331.2 131.543C330.61 131.473 330.18 131.393 329.92 131.323H329.87C329.61 130.583 329.26 129.303 328.81 127.493C328.25 125.313 327.75 123.513 327.31 122.103C325.61 122.033 323.37 121.993 320.59 121.993H318.26C318.26 121.993 318.13 122.793 317.87 124.273C317.54 126.313 317.22 127.983 316.93 129.303C316.63 130.613 316.3 131.313 315.93 131.383C315.85 131.423 315.67 131.443 315.37 131.443C315.11 131.443 314.62 131.423 313.9 131.383C313.18 131.343 312.35 131.343 311.43 131.383H310.82V131.323C310.93 131.103 311.1 130.123 311.32 128.383C312.24 122.533 313.33 116.603 314.57 110.583C315.81 104.563 317.47 98.5634 319.54 92.5634C319.76 92.5234 320.06 92.5034 320.43 92.5034H321.65C323.09 92.5034 324.59 92.4334 326.15 92.2834V92.2734ZM321.09 117.653C323.46 117.653 325.57 117.633 327.42 117.593C325.35 105.933 324.11 99.8934 323.7 99.4834C323.37 99.3734 323.09 99.3134 322.87 99.3134C322.43 99.3134 322.05 99.6734 321.76 100.393C321.46 101.113 321.06 102.733 320.54 105.253C320.02 107.773 319.41 110.953 318.71 114.803L318.21 117.583H319.32C320.06 117.583 320.65 117.603 321.1 117.643L321.09 117.653Z" fill="#0064C8"/>
<path d="M358.41 113.653C358.33 115.583 358.3 116.913 358.3 117.653C358.3 120.063 358.54 121.933 359.02 123.263C359.5 124.593 360.45 125.543 361.85 126.093C362.85 126.313 363.76 126.423 364.57 126.423C367.12 126.423 369.01 125.503 370.23 123.643C371.45 121.793 372.04 119.123 372.01 115.643C372.42 115.683 372.8 115.693 373.15 115.673C373.5 115.653 373.81 115.643 374.07 115.643C374.4 115.603 374.86 115.583 375.46 115.583C376.16 115.583 376.66 115.623 376.96 115.693C377.29 116.953 377.46 118.193 377.46 119.413C377.46 121.633 376.98 123.703 376.02 125.603C375.06 127.503 373.7 129.033 371.94 130.183C370.18 131.333 368.19 131.943 365.97 132.013C365.27 132.123 364.54 132.183 363.8 132.183C361.13 132.183 358.79 131.553 356.77 130.293C354.75 129.033 353.61 127.143 353.35 124.623C353.16 120.923 353.07 116.963 353.07 112.743C353.07 110.783 353.09 109.243 353.13 108.133L353.19 101.413C353.19 99.1234 353.77 97.0734 354.94 95.2734C356.11 93.4734 357.69 92.3034 359.69 91.7434C361.13 91.2634 362.61 91.0234 364.13 91.0234C366.57 91.0234 368.81 91.6434 370.85 92.8834C372.89 94.1234 374.51 95.8034 375.71 97.9334C376.91 100.063 377.52 102.383 377.52 104.903C377.52 105.943 377.41 106.993 377.19 108.073C376.08 108.263 375.19 108.353 374.52 108.353C373.78 108.353 372.89 108.243 371.85 108.023V106.243C371.85 104.243 371.65 102.633 371.24 101.413C370.83 100.193 369.91 99.2134 368.46 98.4734C367.46 97.7734 365.96 97.4234 363.96 97.4234C363.37 97.4234 362.9 97.4434 362.57 97.4734C361.09 97.5534 360.02 98.6234 359.35 100.693C358.68 102.763 358.39 106.133 358.46 110.803L358.4 113.633L358.41 113.653Z" fill="#0064C8"/>
<path d="M386.81 94.1608C389.03 93.0908 391.55 92.5508 394.36 92.5508C396.88 92.5508 399.13 93.0408 401.11 94.0208C403.09 95.0008 404.43 96.5108 405.14 98.5508C405.84 100.101 406.2 102.221 406.2 104.881C406.2 106.071 406.18 106.941 406.14 107.491C406.06 108.791 406.03 110.691 406.03 113.211C406.03 113.841 406.03 114.631 406 115.571C405.98 116.511 405.93 117.621 405.86 118.871L405.69 120.701C405.43 123.851 404.73 126.351 403.58 128.201C402.62 129.531 401.18 130.531 399.28 131.201C397.37 131.871 395.36 132.201 393.25 132.201C392.47 132.201 391.9 132.181 391.53 132.141C388.72 131.921 386.59 131.061 385.14 129.561C383.7 128.061 382.94 125.571 382.86 122.091L382.69 118.591C382.65 117.851 382.6 116.561 382.52 114.731C382.44 112.901 382.41 111.221 382.41 109.701C382.41 108.001 382.47 106.311 382.58 104.651C382.62 102.431 382.95 100.341 383.58 98.3708C384.21 96.4108 385.28 95.0008 386.8 94.1508L386.81 94.1608ZM401.36 112.151L401.3 107.711C401.15 105.191 401.02 103.481 400.91 102.571C400.8 101.661 400.24 100.581 399.24 99.3208C398.24 98.0608 396.59 97.4308 394.3 97.4308C391.49 97.4308 389.51 98.6708 388.38 101.151C387.25 103.631 386.69 107.411 386.69 112.481C386.69 115.591 386.75 118.011 386.88 119.731C387.01 121.451 387.28 122.841 387.68 123.901C388.09 124.951 388.72 125.781 389.57 126.371C390.46 127.001 391.74 127.311 393.4 127.311C396.03 127.311 397.94 126.771 399.12 125.701C400.3 124.631 400.95 123.051 401.06 120.981C401.06 119.871 401.1 118.561 401.17 117.041C401.24 115.521 401.3 114.541 401.34 114.101V112.161L401.36 112.151Z" fill="#0064C8"/>
<path d="M435.269 113.763L435.099 131.483C434.279 131.373 433.409 131.313 432.489 131.313L430.099 131.373C429.949 128.303 429.859 125.473 429.819 122.903C429.779 120.333 429.759 118.743 429.759 118.153C429.759 112.863 429.719 107.913 429.649 103.323C429.429 103.653 429.169 104.133 428.869 104.763L426.819 109.263C426.559 109.783 425.759 111.563 424.429 114.593C424.209 115.143 424.019 115.563 423.879 115.843C423.729 116.123 423.599 116.263 423.489 116.263C423.159 116.043 422.689 115.323 422.069 114.093C421.459 112.873 420.619 111.053 419.539 108.653C419.129 107.653 418.409 106.043 417.369 103.823C417.329 106.003 417.309 108.913 417.309 112.543C417.309 116.653 417.329 119.393 417.369 120.763C417.409 123.953 417.549 127.443 417.809 131.263C417.069 131.373 415.869 131.433 414.199 131.433H412.419C412.269 131.433 412.169 130.853 412.109 129.683C412.049 128.513 412.029 126.123 412.029 122.493C412.029 117.533 412.089 107.813 412.199 93.3331C412.749 93.1831 413.449 93.1131 414.279 93.1131H415.809C416.509 93.1131 417.029 93.0931 417.369 93.0531H417.419C417.569 93.2031 418.049 94.1831 418.859 95.9931C418.969 96.2531 419.469 97.3731 420.359 99.3531C421.249 101.333 422.299 103.433 423.529 105.653C423.639 105.613 424.159 104.453 425.089 102.153C425.239 101.783 425.569 100.973 426.089 99.7131C426.609 98.4531 427.169 97.1531 427.779 95.7931C428.389 94.4331 428.939 93.4731 429.419 92.8731C429.719 92.9131 430.729 92.8931 432.469 92.8131C433.799 92.7431 434.749 92.7031 435.299 92.7031C435.229 94.7031 435.189 96.2031 435.189 97.2031C435.189 98.4231 435.229 100.293 435.299 102.813L435.359 108.313C435.359 110.723 435.319 112.533 435.249 113.753L435.269 113.763Z" fill="#0064C8"/>
<path d="M460.2 94.1633C461.87 93.9833 462.99 93.8833 463.59 93.8833C464.48 93.8833 465.16 94.0133 465.64 94.2733C465.83 98.2333 465.92 101.813 465.92 104.993C465.92 111.363 465.6 117.373 464.98 123.043C464.65 125.563 463.68 127.653 462.09 129.323C460.5 130.993 458.42 131.953 455.87 132.213C455.46 132.253 454.87 132.273 454.09 132.273C450.76 132.273 447.92 131.463 445.56 129.853C443.2 128.243 441.96 125.863 441.81 122.713C441.77 121.303 441.75 119.163 441.75 116.273C441.75 113.383 441.77 111.073 441.81 109.553C441.88 105.403 441.92 102.313 441.92 100.283L441.86 93.7333L441.81 93.6733H441.86L444.58 93.6133C445.65 93.6133 446.54 93.6933 447.25 93.8333C447.21 94.5333 447.19 95.5333 447.19 96.8333L447.13 99.0533C447.02 102.603 446.96 105.713 446.96 108.383C446.96 112.233 447.11 115.383 447.4 117.823C447.7 120.263 448.23 122.503 449.01 124.543C449.6 125.473 450.43 126.093 451.51 126.433C452.25 126.623 452.9 126.713 453.45 126.713C454.41 126.713 455.3 126.523 456.12 126.133C456.93 125.743 457.56 125.163 458.01 124.383C458.86 122.423 459.43 120.003 459.73 117.133C460.03 114.263 460.17 110.833 460.17 106.833L460.11 98.2833C460.11 96.4333 460.13 95.0633 460.17 94.1733L460.2 94.1633Z" fill="#0064C8"/>
<path d="M495.059 127.483C495.059 128.043 495.099 128.983 495.169 130.313V131.423H490.449C490.009 130.533 489.529 129.613 489.029 128.643C488.529 127.683 488.039 126.733 487.559 125.813C487.119 124.963 485.929 122.653 484.009 118.893C482.079 115.133 480.309 111.533 478.679 108.093C478.489 107.683 478.309 107.263 478.119 106.813C477.929 106.363 477.809 106.113 477.729 106.033C477.649 105.953 477.599 106.033 477.559 106.253V107.863C477.559 108.903 477.559 110.773 477.589 113.473C477.609 116.173 477.619 120.413 477.619 126.193V127.633C477.619 129.443 477.639 130.703 477.669 131.413C477.039 131.563 476.409 131.613 475.779 131.583C475.369 131.583 474.799 131.543 474.059 131.473C473.169 131.403 472.519 131.363 472.119 131.363V127.473C472.119 125.103 472.079 121.733 472.009 117.363L471.949 107.423C471.949 101.533 472.119 96.573 472.449 92.543C472.889 92.473 473.259 92.433 473.559 92.433L474.499 92.493C476.389 92.603 477.329 92.733 477.329 92.883C477.769 93.953 478.269 95.053 478.829 96.163C479.379 97.273 480.049 98.573 480.829 100.053C482.639 103.353 484.549 107.153 486.549 111.463C488.549 115.773 489.769 118.543 490.219 119.763C490.259 118.283 490.199 115.853 490.049 112.483L489.939 108.763C489.869 104.653 489.789 101.713 489.719 99.933L489.659 96.933V92.213C490.549 92.103 491.469 92.043 492.439 92.043C493.619 92.113 494.509 92.213 495.109 92.323V110.203C495.149 112.273 495.169 115.443 495.169 119.703L495.109 125.873C495.069 126.243 495.049 126.783 495.049 127.483H495.059Z" fill="#0064C8"/>
<path d="M502.891 92.103C503.151 92.063 503.461 92.043 503.831 92.043C504.131 92.043 504.641 92.083 505.391 92.153C507.171 92.263 508.431 92.343 509.171 92.373V92.593C509.171 95.003 509.131 98.683 509.061 103.643C508.951 108.563 508.891 113.553 508.891 118.583C508.891 123.283 508.961 127.503 509.111 131.243C508.811 131.463 508.071 131.573 506.891 131.573L503.841 131.513C503.361 131.513 502.901 131.553 502.451 131.623C502.601 128.813 502.671 125.463 502.671 121.573C502.671 119.203 502.651 117.403 502.611 116.183L502.441 106.683L502.381 101.743C502.381 98.483 502.551 95.303 502.881 92.193V92.083L502.891 92.103Z" fill="#0064C8"/>
<path d="M530.02 92.4914C531.2 92.7914 532.34 93.3614 533.44 94.2114C534.53 95.0614 535.41 96.0414 536.08 97.1514C537.15 98.8914 538.03 100.781 538.72 102.821C539.4 104.861 539.8 106.861 539.91 108.821L539.8 111.321C539.73 114.651 539.5 117.301 539.13 119.261C539.13 119.371 539.03 119.651 538.82 120.091C538.62 120.531 538.42 121.001 538.24 121.481C537.68 122.781 536.83 124.301 535.69 126.061C534.54 127.821 533.32 129.511 532.02 131.141C528.76 131.251 523.89 131.311 517.41 131.311L517.35 131.371C516.72 126.821 516.41 120.871 516.41 113.541C516.41 110.251 516.43 107.761 516.47 106.101L516.53 98.6014C516.53 96.2314 516.51 94.4514 516.47 93.2714L516.64 93.0514C518.27 92.6414 520.36 92.4414 522.92 92.4414C524.14 92.4414 525.05 92.4614 525.64 92.5014C527.12 92.5414 528.58 92.5414 530.03 92.5014L530.02 92.4914ZM525.02 124.261C526.83 124.221 528.14 124.121 528.94 123.961C529.74 123.791 530.34 123.521 530.74 123.151C531.15 122.781 531.74 122.081 532.52 121.041C533.59 119.631 534.41 117.281 534.96 113.991C535.03 113.101 535.07 112.441 535.07 111.991C535.07 111.541 535.03 110.881 534.96 109.991C534.77 108.031 534.37 106.291 533.74 104.771C533.11 103.251 532.37 102.051 531.52 101.161C530.67 100.271 529.84 99.7514 529.02 99.6114C528.06 99.5414 527.43 99.5014 527.13 99.5014C526.13 99.4314 524.35 99.5014 521.8 99.7214H521.52C521.67 100.761 521.74 102.721 521.74 105.611C521.74 107.981 521.7 109.981 521.63 111.611L521.57 113.551C521.57 114.181 521.61 115.601 521.68 117.831L521.96 123.941C522.26 124.161 523.27 124.271 525.01 124.271L525.02 124.261Z" fill="#0064C8"/>
<path d="M558.22 92.2734C561.89 108.383 564.79 121.413 566.94 131.373V131.433C566.16 131.583 565.37 131.653 564.55 131.653C564.14 131.653 563.72 131.613 563.27 131.543C562.68 131.473 562.25 131.393 561.99 131.323H561.93C561.67 130.583 561.32 129.303 560.88 127.493C560.32 125.313 559.82 123.513 559.38 122.103C557.68 122.033 555.44 121.993 552.66 121.993H550.33C550.33 121.993 550.2 122.793 549.94 124.273C549.61 126.313 549.29 127.983 549 129.303C548.7 130.613 548.37 131.313 548 131.383C547.93 131.423 547.74 131.443 547.45 131.443C547.19 131.443 546.7 131.423 545.98 131.383C545.26 131.343 544.43 131.343 543.51 131.383H542.9V131.323C543.01 131.103 543.18 130.123 543.4 128.383C544.32 122.533 545.41 116.603 546.65 110.583C547.89 104.563 549.55 98.5634 551.62 92.5634C551.84 92.5234 552.14 92.5034 552.51 92.5034H553.73C555.17 92.5034 556.67 92.4334 558.23 92.2834L558.22 92.2734ZM553.17 117.653C555.54 117.653 557.65 117.633 559.5 117.593C557.43 105.933 556.19 99.8934 555.78 99.4834C555.45 99.3734 555.17 99.3134 554.95 99.3134C554.51 99.3134 554.14 99.6734 553.84 100.393C553.54 101.113 553.14 102.733 552.62 105.253C552.1 107.773 551.49 110.953 550.79 114.803L550.29 117.583H551.4C552.14 117.583 552.73 117.603 553.18 117.643L553.17 117.653Z" fill="#0064C8"/>
<path d="M584.799 92.4914C585.979 92.7914 587.119 93.3614 588.219 94.2114C589.309 95.0614 590.189 96.0414 590.859 97.1514C591.929 98.8914 592.809 100.781 593.499 102.821C594.179 104.861 594.579 106.861 594.689 108.821L594.579 111.321C594.509 114.651 594.279 117.301 593.909 119.261C593.909 119.371 593.809 119.651 593.599 120.091C593.399 120.531 593.199 121.001 593.019 121.481C592.459 122.781 591.609 124.301 590.469 126.061C589.319 127.821 588.099 129.511 586.799 131.141C583.539 131.251 578.669 131.311 572.189 131.311L572.129 131.371C571.499 126.821 571.189 120.871 571.189 113.541C571.189 110.251 571.209 107.761 571.249 106.101L571.309 98.6014C571.309 96.2314 571.289 94.4514 571.249 93.2714L571.419 93.0514C573.049 92.6414 575.139 92.4414 577.699 92.4414C578.919 92.4414 579.829 92.4614 580.419 92.5014C581.899 92.5414 583.359 92.5414 584.809 92.5014L584.799 92.4914ZM579.799 124.261C581.609 124.221 582.919 124.121 583.719 123.961C584.519 123.791 585.119 123.521 585.519 123.151C585.929 122.781 586.519 122.081 587.299 121.041C588.369 119.631 589.189 117.281 589.739 113.991C589.809 113.101 589.849 112.441 589.849 111.991C589.849 111.541 589.809 110.881 589.739 109.991C589.549 108.031 589.149 106.291 588.519 104.771C587.889 103.251 587.149 102.051 586.299 101.161C585.449 100.271 584.619 99.7514 583.799 99.6114C582.839 99.5414 582.209 99.5014 581.909 99.5014C580.909 99.4314 579.129 99.5014 576.579 99.7214H576.299C576.449 100.761 576.519 102.721 576.519 105.611C576.519 107.981 576.479 109.981 576.409 111.611L576.349 113.551C576.349 114.181 576.389 115.601 576.459 117.831L576.739 123.941C577.039 124.161 578.049 124.271 579.789 124.271L579.799 124.261Z" fill="#0064C8"/>
<path d="M147.321 194.131C147.321 194.691 147.361 195.631 147.431 196.961V198.071H142.711C142.271 197.181 141.791 196.261 141.291 195.291C140.791 194.321 140.301 193.381 139.821 192.461C139.381 191.611 138.191 189.301 136.271 185.551C134.341 181.791 132.571 178.191 130.941 174.751C130.751 174.341 130.571 173.921 130.381 173.471C130.191 173.031 130.061 172.771 129.991 172.691C129.911 172.621 129.861 172.691 129.821 172.911V174.521C129.821 175.561 129.821 177.431 129.851 180.131C129.871 182.831 129.881 187.071 129.881 192.851V194.291C129.881 196.101 129.901 197.361 129.941 198.071C129.311 198.221 128.681 198.271 128.051 198.241C127.641 198.241 127.071 198.201 126.331 198.131C125.441 198.061 124.791 198.021 124.391 198.021V194.131C124.391 191.761 124.351 188.391 124.281 184.021L124.221 174.081C124.221 168.191 124.391 163.231 124.721 159.201C125.161 159.131 125.531 159.091 125.831 159.091L126.771 159.141C128.661 159.251 129.601 159.381 129.601 159.531C130.041 160.601 130.541 161.701 131.101 162.811C131.661 163.921 132.321 165.221 133.101 166.701C134.911 170.001 136.821 173.801 138.821 178.111C140.821 182.421 142.041 185.191 142.491 186.411C142.531 184.931 142.471 182.501 142.321 179.131L142.211 175.411C142.131 171.301 142.061 168.361 141.991 166.581L141.931 163.581V158.861C142.821 158.751 143.741 158.691 144.711 158.691C145.891 158.761 146.781 158.861 147.381 158.971V176.851C147.421 178.921 147.431 182.091 147.431 186.351L147.381 192.521C147.341 192.891 147.321 193.431 147.321 194.131Z" fill="#0064C8"/>
<path d="M157.759 160.801C159.979 159.731 162.499 159.191 165.309 159.191C167.829 159.191 170.079 159.681 172.059 160.661C174.039 161.641 175.379 163.151 176.089 165.191C176.789 166.751 177.149 168.861 177.149 171.521C177.149 172.711 177.129 173.571 177.089 174.131C177.009 175.431 176.979 177.331 176.979 179.851C176.979 180.481 176.979 181.271 176.949 182.211C176.929 183.151 176.879 184.261 176.809 185.511L176.639 187.341C176.379 190.491 175.679 192.991 174.529 194.841C173.569 196.171 172.129 197.171 170.229 197.841C168.319 198.511 166.309 198.841 164.199 198.841C163.419 198.841 162.849 198.821 162.479 198.791C159.669 198.571 157.539 197.711 156.089 196.211C154.649 194.711 153.889 192.221 153.809 188.741L153.639 185.241C153.599 184.501 153.549 183.211 153.469 181.381C153.399 179.551 153.359 177.871 153.359 176.351C153.359 174.651 153.419 172.961 153.529 171.301C153.569 169.081 153.899 166.991 154.529 165.021C155.159 163.061 156.229 161.651 157.749 160.801H157.759ZM172.309 178.801L172.249 174.361C172.099 171.841 171.969 170.131 171.859 169.221C171.749 168.311 171.189 167.231 170.189 165.971C169.189 164.711 167.539 164.081 165.249 164.081C162.439 164.081 160.459 165.321 159.329 167.801C158.199 170.281 157.639 174.061 157.639 179.131C157.639 182.241 157.699 184.661 157.829 186.381C157.959 188.101 158.229 189.491 158.629 190.551C159.039 191.611 159.669 192.431 160.519 193.021C161.409 193.651 162.689 193.961 164.349 193.961C166.979 193.961 168.889 193.421 170.069 192.351C171.249 191.281 171.899 189.701 172.009 187.631C172.009 186.521 172.049 185.211 172.119 183.691C172.189 182.171 172.249 181.191 172.289 180.751V178.811L172.309 178.801Z" fill="#0064C8"/>
<path d="M201.309 160.802C202.979 160.612 204.099 160.522 204.699 160.522C205.589 160.522 206.269 160.652 206.749 160.912C206.939 164.872 207.029 168.452 207.029 171.632C207.029 178.002 206.709 184.012 206.089 189.682C205.759 192.202 204.789 194.292 203.199 195.962C201.609 197.632 199.529 198.592 196.979 198.852C196.569 198.892 195.979 198.912 195.199 198.912C191.869 198.912 189.029 198.112 186.669 196.492C184.319 194.882 183.069 192.502 182.919 189.352C182.879 187.942 182.859 185.802 182.859 182.912C182.859 180.022 182.879 177.712 182.919 176.192C182.989 172.042 183.029 168.952 183.029 166.912L182.969 160.362L182.919 160.302H182.969L185.689 160.242C186.759 160.242 187.649 160.312 188.359 160.462C188.319 161.162 188.299 162.162 188.299 163.462L188.239 165.682C188.129 169.232 188.069 172.352 188.069 175.012C188.069 178.862 188.219 182.012 188.509 184.452C188.809 186.892 189.339 189.132 190.119 191.172C190.709 192.102 191.539 192.732 192.619 193.062C193.359 193.252 194.009 193.342 194.559 193.342C195.519 193.342 196.409 193.152 197.229 192.762C198.049 192.372 198.669 191.792 199.119 191.012C199.969 189.052 200.539 186.632 200.839 183.762C201.139 180.892 201.279 177.462 201.279 173.462L201.219 164.912C201.219 163.062 201.239 161.692 201.279 160.802H201.309Z" fill="#0064C8"/>
<path d="M236.18 194.131C236.18 194.691 236.22 195.631 236.29 196.961V198.071H231.57C231.13 197.181 230.65 196.261 230.15 195.291C229.65 194.331 229.16 193.381 228.68 192.461C228.24 191.611 227.05 189.301 225.13 185.551C223.2 181.791 221.43 178.191 219.8 174.751C219.61 174.341 219.43 173.921 219.24 173.471C219.05 173.021 218.93 172.771 218.85 172.691C218.78 172.621 218.72 172.691 218.68 172.911V174.521C218.68 175.561 218.68 177.431 218.71 180.131C218.73 182.831 218.74 187.071 218.74 192.851V194.291C218.74 196.101 218.76 197.361 218.79 198.071C218.16 198.221 217.53 198.271 216.9 198.241C216.49 198.241 215.92 198.201 215.18 198.131C214.29 198.061 213.64 198.021 213.24 198.021V194.131C213.24 191.761 213.2 188.391 213.13 184.021L213.07 174.081C213.07 168.191 213.24 163.231 213.57 159.201C214.01 159.131 214.38 159.091 214.68 159.091L215.62 159.141C217.51 159.251 218.45 159.381 218.45 159.531C218.89 160.601 219.39 161.701 219.95 162.811C220.5 163.921 221.17 165.221 221.95 166.701C223.76 170.001 225.67 173.801 227.67 178.111C229.67 182.421 230.89 185.191 231.34 186.411C231.38 184.931 231.32 182.501 231.17 179.131L231.06 175.411C230.99 171.301 230.91 168.361 230.84 166.581L230.78 163.581V158.861C231.67 158.751 232.59 158.691 233.56 158.691C234.74 158.761 235.63 158.861 236.23 158.971V176.851C236.27 178.921 236.29 182.091 236.29 186.351L236.23 192.521C236.19 192.891 236.17 193.431 236.17 194.131H236.18Z" fill="#0064C8"/>
<path d="M266.48 171.742H266.42C265.31 171.932 264.27 172.022 263.31 172.022C262.27 172.022 261.44 171.932 260.81 171.742C260.88 171.412 260.92 170.932 260.92 170.302C260.92 169.082 260.62 168.052 260.03 167.222C259.44 166.392 258.62 165.792 257.59 165.422C256.85 165.162 256.04 165.032 255.15 165.032C253.85 165.032 252.61 165.322 251.43 165.892C250.24 166.472 249.32 167.252 248.65 168.252C247.98 169.252 247.71 170.362 247.82 171.582C248.3 174.392 250.24 175.862 253.65 175.972C257.91 176.122 261.11 177.102 263.26 178.912C265.41 180.722 266.48 183.042 266.48 185.852C266.48 188.522 265.97 190.792 264.95 192.682C263.93 194.572 262.55 195.982 260.81 196.932C259.07 197.872 257.14 198.352 255.03 198.352C252.92 198.352 250.86 197.972 248.86 197.212C246.86 196.452 245.19 195.332 243.86 193.852C242.53 192.372 241.77 190.612 241.58 188.572V188.512C241.47 188.072 241.41 187.572 241.41 187.012V186.622C242.22 186.552 242.85 186.512 243.3 186.512L245.36 186.572C245.77 186.612 246.34 186.632 247.08 186.632C247.04 188.112 247.5 189.372 248.44 190.412C249.38 191.452 250.82 192.212 252.74 192.692C253.3 192.842 253.87 192.912 254.46 192.912C255.68 192.912 256.79 192.612 257.79 192.022C258.79 191.432 259.55 190.612 260.07 189.582C260.59 188.542 260.79 187.402 260.68 186.142C260.53 184.732 260.06 183.682 259.26 182.972C258.46 182.272 257.54 181.802 256.48 181.582C255.43 181.362 253.97 181.172 252.12 181.032L250.01 180.862C248.12 180.562 246.51 179.832 245.18 178.672C243.85 177.502 242.94 176.142 242.46 174.592C242.13 173.482 241.96 172.392 241.96 171.312C241.96 170.132 242.13 169.022 242.46 167.982C242.98 166.242 243.84 164.682 245.04 163.292C246.24 161.902 247.68 160.862 249.34 160.152C250.78 159.562 252.47 159.262 254.39 159.262C257.02 159.262 259.44 159.762 261.67 160.762C263.22 161.542 264.46 162.642 265.36 164.062C266.27 165.492 266.72 167.182 266.72 169.142C266.72 169.842 266.63 170.712 266.44 171.752L266.48 171.742Z" fill="#0064C8"/>
<path d="M309.91 193.181V193.291C309.98 195.251 309.89 196.791 309.63 197.901C307.85 197.861 305.13 197.881 301.47 197.961C298.58 198.031 296.4 198.071 294.92 198.071C291.74 198.071 289.05 197.981 286.87 197.791C286.87 193.611 286.82 189.461 286.7 185.351C286.62 179.871 286.59 175.801 286.59 173.131C286.59 167.801 286.7 163.361 286.92 159.801C293.77 159.471 300.08 159.301 305.86 159.301C308.56 159.301 309.91 159.361 309.91 159.471C309.95 159.731 309.97 160.141 309.97 160.691C309.97 161.431 309.95 161.971 309.91 162.301L309.85 163.971V164.531C307.18 164.721 304.83 164.811 302.8 164.811H297.97C295.82 164.811 293.99 164.871 292.47 164.981L292.25 165.041C292.32 165.971 292.27 167.651 292.08 170.091C292.01 171.941 291.97 173.111 291.97 173.591C291.97 174.741 292.04 175.591 292.19 176.141L292.25 176.201C294.03 176.241 295.92 176.261 297.92 176.261C299.62 176.261 301.01 176.301 302.09 176.371V176.421C302.16 176.981 302.2 177.751 302.2 178.751C302.2 179.081 302.2 179.461 302.17 179.891C302.14 180.321 302.17 180.771 302.2 181.251C301.35 181.331 300.66 181.381 300.15 181.421C299.63 181.461 299.04 181.481 298.37 181.481C297.26 181.481 296.22 181.501 295.26 181.541C293.59 181.611 292.67 181.711 292.48 181.821C292.33 182.671 292.26 183.871 292.26 185.431C292.26 186.471 292.28 187.261 292.32 187.821C292.32 188.301 292.32 189.051 292.35 190.071C292.37 191.091 292.35 192.021 292.32 192.871L292.38 192.931C295.05 192.891 298.45 192.971 302.6 193.151C304.97 193.221 306.67 193.261 307.71 193.261L309.93 193.211L309.91 193.181Z" fill="#0064C8"/>
<path d="M338.27 194.131C338.27 194.691 338.31 195.631 338.38 196.961V198.071H333.66C333.22 197.181 332.74 196.261 332.24 195.291C331.74 194.321 331.25 193.381 330.77 192.461C330.33 191.611 329.14 189.301 327.22 185.551C325.29 181.791 323.52 178.191 321.89 174.751C321.7 174.341 321.52 173.921 321.33 173.471C321.14 173.031 321.01 172.771 320.94 172.691C320.86 172.621 320.81 172.691 320.77 172.911V174.521C320.77 175.561 320.77 177.431 320.8 180.131C320.82 182.831 320.83 187.071 320.83 192.851V194.291C320.83 196.101 320.85 197.361 320.89 198.071C320.26 198.221 319.63 198.271 319 198.241C318.59 198.241 318.02 198.201 317.28 198.131C316.39 198.061 315.74 198.021 315.34 198.021V194.131C315.34 191.761 315.3 188.391 315.23 184.021L315.17 174.081C315.17 168.191 315.34 163.231 315.67 159.201C316.11 159.131 316.48 159.091 316.78 159.091L317.72 159.141C319.61 159.251 320.55 159.381 320.55 159.531C320.99 160.601 321.49 161.701 322.05 162.811C322.61 163.921 323.27 165.221 324.05 166.701C325.86 170.001 327.77 173.801 329.77 178.111C331.77 182.421 332.99 185.191 333.44 186.411C333.48 184.931 333.42 182.501 333.27 179.131L333.16 175.411C333.08 171.301 333.01 168.361 332.94 166.581L332.88 163.581V158.861C333.77 158.751 334.69 158.691 335.66 158.691C336.84 158.761 337.73 158.861 338.33 158.971V176.851C338.37 178.921 338.38 182.091 338.38 186.351L338.33 192.521C338.29 192.891 338.27 193.431 338.27 194.131Z" fill="#0064C8"/>
<path d="M382.871 193.181V193.291C382.941 195.251 382.851 196.791 382.591 197.901C380.811 197.861 378.091 197.881 374.431 197.961C371.541 198.031 369.361 198.071 367.881 198.071C364.701 198.071 362.011 197.981 359.831 197.791C359.831 193.611 359.781 189.461 359.661 185.351C359.581 179.871 359.551 175.801 359.551 173.131C359.551 167.801 359.661 163.361 359.881 159.801C366.731 159.471 373.041 159.301 378.821 159.301C381.521 159.301 382.871 159.361 382.871 159.471C382.911 159.731 382.931 160.141 382.931 160.691C382.931 161.431 382.911 161.971 382.871 162.301L382.811 163.971V164.531C380.141 164.721 377.791 164.811 375.761 164.811H370.931C368.781 164.811 366.951 164.871 365.431 164.981L365.211 165.041C365.281 165.971 365.231 167.651 365.041 170.091C364.971 171.941 364.931 173.111 364.931 173.591C364.931 174.741 365.001 175.591 365.151 176.141L365.211 176.201C366.991 176.241 368.881 176.261 370.881 176.261C372.581 176.261 373.971 176.301 375.051 176.371V176.421C375.121 176.981 375.161 177.751 375.161 178.751C375.161 179.081 375.161 179.461 375.131 179.891C375.101 180.321 375.131 180.771 375.161 181.251C374.311 181.331 373.621 181.381 373.111 181.421C372.591 181.461 372.001 181.481 371.331 181.481C370.221 181.481 369.181 181.501 368.221 181.541C366.551 181.611 365.631 181.711 365.441 181.821C365.291 182.671 365.221 183.871 365.221 185.431C365.221 186.471 365.241 187.261 365.281 187.821C365.281 188.301 365.281 189.051 365.311 190.071C365.331 191.091 365.311 192.021 365.281 192.871L365.341 192.931C368.011 192.891 371.411 192.971 375.561 193.151C377.931 193.221 379.631 193.261 380.671 193.261L382.891 193.211L382.871 193.181Z" fill="#0064C8"/>
<path d="M411.759 171.742H411.699C410.589 171.932 409.549 172.022 408.589 172.022C407.549 172.022 406.719 171.932 406.089 171.742C406.159 171.412 406.199 170.932 406.199 170.302C406.199 169.082 405.899 168.052 405.309 167.222C404.719 166.392 403.899 165.792 402.869 165.422C402.129 165.162 401.319 165.032 400.429 165.032C399.129 165.032 397.889 165.322 396.709 165.892C395.519 166.472 394.599 167.252 393.929 168.252C393.259 169.252 392.989 170.362 393.099 171.582C393.579 174.392 395.519 175.862 398.929 175.972C403.189 176.122 406.389 177.102 408.539 178.912C410.689 180.722 411.759 183.042 411.759 185.852C411.759 188.522 411.249 190.792 410.229 192.682C409.209 194.572 407.829 195.982 406.089 196.932C404.349 197.872 402.419 198.352 400.309 198.352C398.199 198.352 396.139 197.972 394.139 197.212C392.139 196.452 390.469 195.332 389.139 193.852C387.809 192.372 387.049 190.612 386.859 188.572V188.512C386.749 188.072 386.689 187.572 386.689 187.012V186.622C387.499 186.552 388.129 186.512 388.579 186.512L390.639 186.572C391.049 186.612 391.619 186.632 392.359 186.632C392.319 188.112 392.779 189.372 393.719 190.412C394.659 191.452 396.099 192.212 398.019 192.692C398.579 192.842 399.149 192.912 399.739 192.912C400.959 192.912 402.069 192.612 403.069 192.022C404.069 191.432 404.829 190.612 405.349 189.582C405.869 188.542 406.069 187.402 405.959 186.142C405.809 184.732 405.339 183.682 404.539 182.972C403.739 182.272 402.819 181.802 401.759 181.582C400.709 181.362 399.249 181.172 397.399 181.032L395.289 180.862C393.399 180.562 391.789 179.832 390.459 178.672C389.129 177.502 388.219 176.142 387.739 174.592C387.409 173.482 387.239 172.392 387.239 171.312C387.239 170.132 387.409 169.022 387.739 167.982C388.259 166.242 389.119 164.682 390.319 163.292C391.519 161.902 392.959 160.862 394.619 160.152C396.059 159.562 397.749 159.262 399.669 159.262C402.299 159.262 404.719 159.762 406.949 160.762C408.499 161.542 409.739 162.642 410.639 164.062C411.549 165.492 411.999 167.182 411.999 169.142C411.999 169.842 411.909 170.712 411.719 171.752L411.759 171.742Z" fill="#0064C8"/>
<path d="M441.939 170.801V171.521C441.679 175.441 440.149 178.431 437.359 180.491C434.559 182.551 430.669 183.571 425.669 183.571C424.629 183.571 423.859 183.551 423.339 183.511C423.379 183.841 423.389 184.341 423.389 185.011V187.231C423.389 188.641 423.449 192.041 423.559 197.451V197.511L423.389 197.561C422.499 197.781 421.409 197.891 420.109 197.891C419.219 197.891 418.349 197.831 417.499 197.721C417.389 195.241 417.329 191.091 417.329 185.281V174.281C417.329 168.541 417.259 163.601 417.109 159.451C419.629 158.751 422.329 158.391 425.219 158.391C429.739 158.391 433.599 159.381 436.799 161.361C439.999 163.341 441.719 166.481 441.939 170.771V170.801ZM436.499 169.471C435.979 167.621 435.199 166.361 434.169 165.691C433.129 164.991 432.099 164.491 431.059 164.191C430.019 163.891 428.689 163.751 427.059 163.751C424.949 163.751 423.389 163.881 422.389 164.141C422.429 164.551 422.449 165.081 422.449 165.751V171.471C422.519 175.061 422.629 177.391 422.779 178.471C425.039 178.471 427.119 178.361 429.029 178.141C430.939 177.921 432.709 177.321 434.359 176.341C436.009 175.361 436.829 173.851 436.829 171.811C436.829 171.071 436.719 170.291 436.499 169.481V169.471Z" fill="#0064C8"/>
<path d="M459.029 158.922C462.699 175.032 465.599 188.062 467.749 198.022V198.082C466.969 198.232 466.179 198.302 465.359 198.302C464.949 198.302 464.529 198.262 464.079 198.192C463.489 198.122 463.059 198.042 462.799 197.972H462.749C462.489 197.232 462.139 195.952 461.689 194.142C461.129 191.962 460.629 190.162 460.189 188.752C458.489 188.682 456.249 188.642 453.469 188.642H451.139C451.139 188.642 451.009 189.442 450.749 190.922C450.419 192.962 450.099 194.632 449.809 195.952C449.509 197.262 449.179 197.962 448.809 198.032C448.729 198.072 448.549 198.092 448.249 198.092C447.989 198.092 447.499 198.072 446.779 198.032C446.059 197.992 445.229 197.992 444.309 198.032H443.699V197.982C443.809 197.762 443.979 196.782 444.199 195.042C445.119 189.192 446.209 183.262 447.449 177.242C448.689 171.222 450.349 165.222 452.419 159.222C452.639 159.182 452.939 159.162 453.309 159.162H454.529C455.969 159.162 457.469 159.092 459.029 158.942V158.922ZM453.979 184.302C456.349 184.302 458.459 184.282 460.309 184.242C458.239 172.582 456.999 166.542 456.589 166.132C456.259 166.022 455.979 165.962 455.759 165.962C455.319 165.962 454.939 166.322 454.649 167.042C454.349 167.762 453.949 169.382 453.429 171.902C452.909 174.422 452.299 177.602 451.599 181.452L451.099 184.232H452.209C452.949 184.232 453.539 184.252 453.989 184.292L453.979 184.302Z" fill="#0064C8"/>
<path d="M495.5 192.52C495.46 192.89 495.44 193.43 495.44 194.13C495.44 194.69 495.48 195.63 495.55 196.96V198.07H490.83C490.39 197.18 489.91 196.26 489.41 195.29C488.91 194.32 488.42 193.38 487.94 192.46C487.5 191.61 486.31 189.3 484.39 185.55C482.46 181.79 480.69 178.19 479.06 174.75C478.87 174.34 478.69 173.92 478.5 173.47C478.31 173.03 478.18 172.77 478.11 172.69C478.03 172.62 477.98 172.69 477.94 172.91V174.52C477.94 175.56 477.94 177.43 477.97 180.13C477.99 182.83 478 187.07 478 192.85V194.29C478 196.1 478.02 197.36 478.06 198.07C477.43 198.22 476.8 198.27 476.17 198.24C475.76 198.24 475.19 198.2 474.45 198.13C473.56 198.06 472.91 198.02 472.51 198.02V194.13C472.51 191.76 472.47 188.39 472.4 184.02L472.34 174.08C472.34 168.19 472.51 163.23 472.84 159.2C473.28 159.13 473.65 159.09 473.95 159.09L474.89 159.14C476.78 159.25 477.72 159.38 477.72 159.53C478.16 160.6 478.66 161.7 479.22 162.81C479.78 163.92 480.44 165.22 481.22 166.7C483.03 170 484.94 173.8 486.94 178.11C488.94 182.42 490.16 185.19 490.61 186.41C490.65 184.93 490.59 182.5 490.44 179.13L490.33 175.41C490.25 171.3 490.18 168.36 490.11 166.58L490.05 163.58V158.86C490.94 158.75 491.86 158.69 492.83 158.69C494.01 158.76 494.9 158.86 495.5 158.97V176.85C495.54 178.92 495.55 182.09 495.55 186.35L495.5 192.52ZM475.5 156.03L473.5 156.09C473.83 154.98 474.31 153.67 474.94 152.17C475.57 150.67 476.2 149.59 476.83 148.92C478.13 147.62 479.62 146.98 481.33 146.98C482.4 146.98 483.4 147.28 484.33 147.87C484.63 148.06 484.93 148.4 485.25 148.9C485.56 149.4 485.78 149.74 485.89 149.93C486.41 150.86 486.9 151.58 487.36 152.1C487.82 152.62 488.37 152.88 489 152.88C489.11 152.88 489.31 152.84 489.61 152.77C490.68 152.44 491.44 151.77 491.89 150.77C492.34 149.77 492.54 148.7 492.5 147.55L495.78 147.44L495.84 147.5V147.55C495.91 148.14 495.95 148.59 495.95 148.88C495.95 150.55 495.49 152.12 494.56 153.6C493.63 155.08 492.49 155.99 491.12 156.32C490.38 156.47 489.79 156.54 489.34 156.54C487.04 156.54 485.51 155.34 484.73 152.93C484.4 152.08 484.03 151.5 483.62 151.18C483.21 150.87 482.71 150.69 482.12 150.65C480.86 150.65 479.85 151.16 479.09 152.18C478.33 153.2 477.95 154.52 477.95 156.15V156.21C477.4 156.1 476.58 156.04 475.51 156.04L475.5 156.03Z" fill="#0064C8"/>
<path d="M506.339 160.801C508.559 159.731 511.079 159.191 513.889 159.191C516.409 159.191 518.659 159.681 520.639 160.661C522.619 161.641 523.959 163.151 524.669 165.191C525.369 166.751 525.729 168.861 525.729 171.521C525.729 172.711 525.709 173.571 525.669 174.131C525.589 175.431 525.559 177.331 525.559 179.851C525.559 180.481 525.559 181.271 525.529 182.211C525.509 183.151 525.459 184.261 525.389 185.511L525.219 187.341C524.959 190.491 524.259 192.991 523.109 194.841C522.149 196.171 520.709 197.171 518.809 197.841C516.899 198.511 514.889 198.841 512.779 198.841C511.999 198.841 511.429 198.821 511.059 198.791C508.249 198.571 506.119 197.711 504.669 196.211C503.229 194.711 502.469 192.221 502.389 188.741L502.219 185.241C502.179 184.501 502.129 183.211 502.049 181.381C501.979 179.551 501.939 177.871 501.939 176.351C501.939 174.651 501.999 172.961 502.109 171.301C502.149 169.081 502.479 166.991 503.109 165.021C503.739 163.061 504.809 161.651 506.329 160.801H506.339ZM520.889 178.801L520.829 174.361C520.679 171.841 520.549 170.131 520.439 169.221C520.329 168.311 519.769 167.231 518.769 165.971C517.769 164.711 516.119 164.081 513.829 164.081C511.019 164.081 509.039 165.321 507.909 167.801C506.779 170.281 506.219 174.061 506.219 179.131C506.219 182.241 506.279 184.661 506.409 186.381C506.539 188.101 506.809 189.491 507.209 190.551C507.619 191.611 508.249 192.431 509.099 193.021C509.989 193.651 511.269 193.961 512.929 193.961C515.559 193.961 517.469 193.421 518.649 192.351C519.829 191.281 520.479 189.701 520.589 187.631C520.589 186.521 520.629 185.211 520.699 183.691C520.769 182.171 520.829 181.191 520.869 180.751V178.811L520.889 178.801Z" fill="#0064C8"/>
<path d="M554.671 192.68C554.671 193.01 554.641 193.47 554.591 194.04C554.531 194.61 554.521 195.1 554.561 195.51C554.561 196.4 554.511 197.02 554.421 197.37C554.331 197.72 554.211 197.93 554.061 197.98C553.911 198.04 553.631 198.06 553.231 198.06C552.901 198.02 552.541 198.01 552.151 198.03C551.761 198.05 551.361 198.06 550.961 198.06C547.631 198.17 544.391 198.23 541.241 198.23L533.631 198.17C533.151 198.13 532.371 198.11 531.301 198.11V197.11C531.601 190.15 531.741 184 531.741 178.67C531.741 175.3 531.681 171.56 531.571 167.45C531.571 166.04 531.531 163.23 531.461 159.01C531.941 158.82 532.721 158.73 533.791 158.73C535.381 158.73 536.621 158.92 537.511 159.29C537.431 162.18 537.401 164.36 537.401 165.84C537.401 167.62 537.441 170.32 537.511 173.95L537.571 182V185.5C537.571 188.35 537.531 190.65 537.461 192.39V192.45C537.901 192.41 538.661 192.38 539.741 192.34C540.811 192.3 541.871 192.28 542.911 192.28C544.061 192.28 546.041 192.35 548.851 192.5C551.371 192.65 552.981 192.72 553.681 192.72C554.201 192.72 554.531 192.7 554.681 192.66L554.671 192.68Z" fill="#0064C8"/>
</svg>
